#tb 0: 1/25
#media_type 0: video
#codec_id 0: rawvideo
#dimensions 0: 416x240
#sar 0: 0/1
0,          0,          0,        1,   299520, 0xf774c1ce
0,          1,          1,        1,   299520, 0x934234c5
0,          2,          2,        1,   299520, 0xc45896b0
0,          3,          3,        1,   299520, 0xf0ae99e2
0,          4,          4,        1,   299520, 0x7390a989
0,          5,          5,        1,   299520, 0xfe75a9d3
0,          6,          6,        1,   299520, 0x40b32514
0,          7,          7,        1,   299520, 0xd6326413
0,          8,          8,        1,   299520, 0x01784546
0,          9,          9,        1,   299520, 0x0a13eb22
0,         10,         10,        1,   299520, 0x1982d8a7
0,         11,         11,        1,   299520, 0x822d42a7
0,         12,         12,        1,   299520, 0x30095b39
0,         13,         13,        1,   299520, 0xa55809ae
0,         14,         14,        1,   299520, 0x8dad2885
0,         15,         15,        1,   299520, 0xc4c985de
0,         16,         16,        1,   299520, 0x9f6f14ee
0,         17,         17,        1,   299520, 0xa4538c1b
0,         18,         18,        1,   299520, 0x69c2f1b3
0,         19,         19,        1,   299520, 0x1d85fe95
0,         20,         20,        1,   299520, 0x4a08a4a8
0,         21,         21,        1,   299520, 0xfe04785e
0,         22,         22,        1,   299520, 0x62bc03a0
0,         23,         23,        1,   299520, 0x840f6273
0,         24,         24,        1,   299520, 0x11a7b894
0,         25,         25,        1,   299520, 0x17f4be4e
0,         26,         26,        1,   299520, 0xc2f16fc9
0,         27,         27,        1,   299520, 0x96184a3a
0,         28,         28,        1,   299520, 0x5e602fce
0,         29,         29,        1,   299520, 0xa6534def
0,         30,         30,        1,   299520, 0x6851cd6a
0,         31,         31,        1,   299520, 0x21fd29b1
0,         32,         32,        1,   299520, 0x3fc3d15e
0,         33,         33,        1,   299520, 0xc8324156
0,         34,         34,        1,   299520, 0x6dd882c8
0,         35,         35,        1,   299520, 0x83cd304f
0,         36,         36,        1,   299520, 0x3490724d
0,         37,         37,        1,   299520, 0x4b977534
0,         38,         38,        1,   299520, 0xfa153316
0,         39,         39,        1,   299520, 0x88e88599
0,         40,         40,        1,   299520, 0x5104fdc4
0,         41,         41,        1,   299520, 0x50b1b8bc
0,         42,         42,        1,   299520, 0x1c28bfea
0,         43,         43,        1,   299520, 0xab11fbf2
0,         44,         44,        1,   299520, 0xc0f74abf
0,         45,         45,        1,   299520, 0x9736b2d2
0,         46,         46,        1,   299520, 0x9f08211a
0,         47,         47,        1,   299520, 0x9a8870af
0,         48,         48,        1,   299520, 0xa6f514ad
0,         49,         49,        1,   299520, 0x28bf93c1
0,         50,         50,        1,   299520, 0x09b5b375
0,         51,         51,        1,   299520, 0x23fed29a
0,         52,         52,        1,   299520, 0xea60b7b3
0,         53,         53,        1,   299520, 0x01d73fba
0,         54,         54,        1,   299520, 0x92f85b76
0,         55,         55,        1,   299520, 0x365f2edc
0,         56,         56,        1,   299520, 0x16842aa0
0,         57,         57,        1,   299520, 0xdce85111
0,         58,         58,        1,   299520, 0x442825b2
0,         59,         59,        1,   299520, 0x0cb820e1
0,         60,         60,        1,   299520, 0x9bf0a464
0,         61,         61,        1,   299520, 0x874fed73
0,         62,         62,        1,   299520, 0xd6bcf3bb
0,         63,         63,        1,   299520, 0x6fff2203
